<?xml version="1.0" encoding="UTF-8" standalone="no"?>
<!-- Created with Inkscape (http://www.inkscape.org/) -->

<svg
   xmlns:dc="http://purl.org/dc/elements/1.1/"
   xmlns:cc="http://creativecommons.org/ns#"
   xmlns:rdf="http://www.w3.org/1999/02/22-rdf-syntax-ns#"
   xmlns:svg="http://www.w3.org/2000/svg"
   xmlns="http://www.w3.org/2000/svg"
   xmlns:xlink="http://www.w3.org/1999/xlink"
   xmlns:sodipodi="http://sodipodi.sourceforge.net/DTD/sodipodi-0.dtd"
   xmlns:inkscape="http://www.inkscape.org/namespaces/inkscape"
   id="svg3157"
   version="1.1"
   inkscape:version="0.48.2 r9819"
   width="1877"
   height="426"
   sodipodi:docname="Hawk.svg">
  <metadata
     id="metadata3163">
    <rdf:RDF>
      <cc:Work
         rdf:about="">
        <dc:format>image/svg+xml</dc:format>
        <dc:type
           rdf:resource="http://purl.org/dc/dcmitype/StillImage" />
        <dc:title></dc:title>
      </cc:Work>
    </rdf:RDF>
  </metadata>
  <defs
     id="defs3161">
    <linearGradient
       id="linearGradient4036">
      <stop
         id="stop4038"
         offset="0"
         style="stop-color:#ffffff;stop-opacity:1" />
      <stop
         id="stop4042"
         offset="1"
         style="stop-color:#67d2ff;stop-opacity:1;" />
    </linearGradient>
    <linearGradient
       id="linearGradient3989">
      <stop
         id="stop3991"
         offset="0"
         style="stop-color:#ffffff;stop-opacity:1;" />
      <stop
         id="stop3993"
         offset="1"
         style="stop-color:#ecfaff;stop-opacity:0;" />
    </linearGradient>
    <linearGradient
       id="linearGradient3967">
      <stop
         style="stop-color:#f5f9fe;stop-opacity:1;"
         offset="0"
         id="stop3969" />
      <stop
         style="stop-color:#006af4;stop-opacity:1;"
         offset="1"
         id="stop3971" />
    </linearGradient>
    <linearGradient
       id="linearGradient3957">
      <stop
         style="stop-color:#000000;stop-opacity:1;"
         offset="0"
         id="stop3959" />
      <stop
         style="stop-color:#96a0a3;stop-opacity:1;"
         offset="1"
         id="stop3961" />
    </linearGradient>
    <linearGradient
       id="linearGradient3949">
      <stop
         style="stop-color:#3465a4;stop-opacity:1;"
         offset="0"
         id="stop3951" />
      <stop
         style="stop-color:#3465a4;stop-opacity:0;"
         offset="1"
         id="stop3953" />
    </linearGradient>
    <inkscape:perspective
       sodipodi:type="inkscape:persp3d"
       inkscape:vp_x="0 : 0.5 : 1"
       inkscape:vp_y="0 : 1000 : 0"
       inkscape:vp_z="1 : 0.5 : 1"
       inkscape:persp3d-origin="0.5 : 0.33333333 : 1"
       id="perspective3165" />
    <clipPath
       clipPathUnits="userSpaceOnUse"
       id="clipPath3171">
      <rect
         style="fill:#73d216;fill-opacity:1;stroke:none"
         id="rect3173"
         width="759.15771"
         height="504.94434"
         x="-17.411875"
         y="-51.085342" />
    </clipPath>
    <linearGradient
       inkscape:collect="always"
       xlink:href="#linearGradient3957"
       id="linearGradient3963"
       x1="807.91095"
       y1="676.73096"
       x2="684.77966"
       y2="-96.356232"
       gradientUnits="userSpaceOnUse" />
    <linearGradient
       inkscape:collect="always"
       xlink:href="#linearGradient3989"
       id="linearGradient3997"
       gradientUnits="userSpaceOnUse"
       x1="527.57977"
       y1="-275.99722"
       x2="527.57977"
       y2="-385.89331" />
  </defs>
  <sodipodi:namedview
     pagecolor="#ffffff"
     bordercolor="#666666"
     borderopacity="1"
     objecttolerance="10"
     gridtolerance="10"
     guidetolerance="10"
     inkscape:pageopacity="0"
     inkscape:pageshadow="2"
     inkscape:window-width="1266"
     inkscape:window-height="1000"
     id="namedview3159"
     showgrid="false"
     inkscape:zoom="0.81221216"
     inkscape:cx="700.34025"
     inkscape:cy="237.15143"
     inkscape:window-x="401"
     inkscape:window-y="236"
     inkscape:window-maximized="0"
     inkscape:current-layer="svg3157" />
  <path
     sodipodi:type="arc"
     style="opacity:0.93000016;fill:url(#linearGradient3963);fill-opacity:1;stroke:none"
     id="path3175"
     sodipodi:cx="807.91095"
     sodipodi:cy="290.18738"
     sodipodi:rx="386.54361"
     sodipodi:ry="386.54361"
     d="m 1194.4546,290.18738 a 386.54361,386.54361 0 1 1 -773.08726,0 386.54361,386.54361 0 1 1 773.08726,0 z"
     transform="matrix(0.4481983,0,0,0.4481983,387.99453,86.972377)"
     inkscape:export-filename="/Users/filipe/Desktop/path3995.png"
     inkscape:export-xdpi="300"
     inkscape:export-ydpi="300" />
  <path
     style="fill:#d6eff1;fill-opacity:1"
     d="m 813.38332,312.29662 c -0.81058,-0.81057 -1.5731,-2.00918 -1.69452,-2.66356 -1.96454,-10.58782 -2.55147,-16.25495 -2.48101,-23.95355 0.12012,-13.11637 2.36407,-39.4426 4.26448,-50.03023 l 0.5837,-3.25196 0.34374,2.75166 c 0.18913,1.51342 0.48828,14.57131 0.66484,29.01754 0.17652,14.44623 0.58322,30.09318 0.9038,34.77101 0.85936,12.54055 0.82879,14.45382 -0.23421,14.66151 -0.48239,0.0942 -1.54023,-0.49184 -2.35082,-1.30242 z m -78.38172,0.17227 c -0.15349,-0.39999 0.18232,-1.96044 0.74624,-3.46765 0.56392,-1.50722 1.25515,-4.5734 1.53607,-6.81374 0.28091,-2.24034 0.75879,-4.99448 1.06194,-6.1203 0.7734,-2.87219 13.58623,-28.4274 16.2982,-32.50678 2.1228,-3.19315 4.42429,-5.39753 5.6353,-5.39753 0.92778,0 0.63081,0.6868 -1.65573,3.82918 -3.07888,4.23129 -3.67497,5.52341 -8.27746,17.94283 -5.84306,15.767 -7.99471,21.06258 -9.39841,23.13106 -0.78135,1.15137 -1.4028,3.02821 -1.68883,5.10043 -0.32366,2.34485 -0.75222,3.52807 -1.50467,4.15423 -1.2805,1.06558 -2.37796,1.1247 -2.75265,0.14827 z m 10.10115,-0.5235 c 0.18741,-0.8255 2.31524,-6.7916 4.72852,-13.25801 10.85435,-29.08433 17.94306,-44.87436 22.17959,-49.40486 4.19902,-4.49038 2.91931,0.58445 -4.57335,18.13596 -2.4668,5.77849 -5.97352,13.69039 -7.79269,17.58199 -3.44493,7.36946 -12.88429,25.66396 -14.15285,27.42976 -0.68929,0.95948 -0.71097,0.93248 -0.38922,-0.48484 z m 87.61649,-12.59042 c -0.16819,-7.65908 -0.63777,-19.89171 -1.0435,-27.18362 -1.15807,-20.81262 -1.2452,-23.51421 -0.75874,-23.51421 0.24923,0 0.45468,0.16885 0.45669,0.37523 0,0.20638 0.44062,3.6397 0.97486,7.62961 1.49818,11.19031 3.45732,29.94464 4.01295,38.41572 0.2759,4.20592 0.63483,8.25837 0.79757,9.00544 0.48006,2.20311 1.30414,4.10998 1.77626,4.10998 0.80132,0 0.45879,-6.69713 -1.32166,-25.84025 -1.82552,-19.62757 -2.61882,-31.66258 -2.05304,-31.14499 0.66479,0.60818 5.07506,33.22348 6.28489,46.47889 0.28884,3.16441 1.01801,7.71969 1.62044,10.12284 0.60244,2.40315 0.92334,4.54194 0.7131,4.75287 -0.2102,0.21093 -2.80586,0.4588 -5.7681,0.55081 l -5.38593,0.1673 -0.30579,-13.92562 z m 15.66114,12.96487 c -1.6378,-0.81818 -1.78875,-1.10125 -2.33326,-4.37687 -0.32021,-1.92616 -0.86343,-6.71866 -1.20713,-10.65 -0.68433,-7.82635 -0.41778,-9.1319 1.50849,-7.38862 1.32815,1.20193 1.91298,3.17049 2.49862,8.41057 0.68595,6.13799 2.76518,10.25155 4.00792,7.92947 1.2684,-2.37007 1.19654,-5.34166 -0.22712,-9.38867 -1.88409,-5.35595 -2.00148,-10.59212 -0.29898,-13.34296 1.56062,-2.52177 1.35187,-4.33025 -1.93433,-16.75735 -2.69367,-10.18624 -4.24301,-14.86884 -5.0936,-15.39453 -0.28214,-0.1744 -1.34651,0.49672 -2.36512,1.4914 -1.01864,0.99467 -2.01147,1.80849 -2.20624,1.80849 -0.80679,0 -0.30796,-3.92611 0.65425,-5.14939 0.69206,-0.8798 1.24653,-2.90188 1.76759,-6.44632 0.90879,-6.18165 1.42378,-7.95205 3.17595,-10.91789 1.87575,-3.17497 2.37764,-4.43267 3.82901,-9.59469 2.49306,-8.86699 4.35931,-11.55714 16.7092,-24.086 10.576,-10.7293 10.19166,-9.36015 3.58591,-12.77335 -2.09555,-1.0828 -5.10721,-2.37233 -6.69253,-2.86561 -2.98641,-0.92925 -5.10918,-2.42408 -4.60375,-3.24192 0.45194,-0.73124 1.96599,-0.56111 4.74108,0.53273 l 2.54514,1.0032 0.53658,-1.53923 c 0.7056,-2.02409 2.04958,-2.46839 7.46665,-2.46839 2.75514,0 5.14592,-0.27564 6.19587,-0.71432 1.52344,-0.63656 1.8283,-1.10515 2.79998,-4.30418 0.92394,-3.0419 1.04531,-4.32652 0.79523,-8.41619 -0.1623,-2.65449 -0.44291,-5.50175 -0.62358,-6.32725 -0.30209,-1.38038 -0.0445,-1.22272 3.20801,1.96345 4.93757,4.83687 5.055,5.2332 3.44342,11.62236 -0.7228,2.86551 -1.18751,5.53996 -1.03278,5.94323 0.48867,1.27346 2.56133,0.81435 4.33622,-0.96053 3.39259,-3.39261 2.98045,-5.94492 -2.61483,-16.19387 -1.69054,-3.0966 -3.20866,-6.30479 -3.37354,-7.12931 -0.25898,-1.29464 -0.15263,-1.49911 0.77936,-1.49911 4.73943,0 11.12193,7.8495 14.83916,18.25002 4.02444,11.2598 4.26751,22.20895 0.79765,35.9317 -2.11338,8.35802 -2.99817,10.35728 -4.58368,10.35728 -1.43586,0 -2.21785,-1.51623 -4.6469,-9.01059 -3.15515,-9.73429 -3.22915,-9.82308 -6.92403,-8.30894 -0.92789,0.38025 -3.75377,0.93046 -6.27982,1.2227 -2.63586,0.30494 -5.42766,0.9573 -6.55234,1.53107 -2.3998,1.22427 -6.33331,5.48641 -8.41222,9.11495 -5.34299,9.32568 -6.84576,11.51334 -10.81891,15.74977 -2.44295,2.60487 -4.50228,5.26779 -4.68283,6.0556 -0.17729,0.77339 -0.77908,2.95652 -1.33737,4.85139 -1.49218,5.06488 -1.04213,10.93605 1.33894,17.46723 0.98304,2.69652 1.78738,5.53697 1.78738,6.3121 0,1.45193 4.12828,16.51987 4.84907,17.69888 0.22224,0.36351 1.45987,2.12107 2.75031,3.90568 5.37203,7.42932 14.72371,24.62791 15.24876,28.04395 0.23715,1.54271 0.10446,1.92216 -0.85103,2.43352 -1.76469,0.94444 -4.53764,-0.13609 -6.77196,-2.63886 -2.32766,-2.60729 -3.63642,-3.39357 -5.06862,-3.0451 -1.03371,0.25151 -1.06618,0.17733 -0.53649,-1.22613 1.08902,-2.88505 -2.47183,-9.07466 -4.4887,-7.80246 -1.21547,0.76671 -1.67422,3.0246 -1.36102,6.69906 0.30499,3.57878 0.1451,3.98103 -1.94883,4.9023 -1.0659,0.46897 -1.36432,0.88243 -1.1708,1.62235 0.50802,1.94269 -2.27939,2.53992 -5.15341,1.10418 z m 12.38247,0.33501 c -0.99298,-0.57734 -1.16818,-2.22062 -0.29423,-2.76075 0.33017,-0.20402 0.98586,0.14025 1.51736,0.79667 1.41487,1.74727 0.61452,3.03248 -1.22313,1.96408 z M 711.71471,241.10628 c 3.35258,-2.24338 6.08679,-3.1417 6.08679,-1.99981 0,1.95132 -29.01662,31.28361 -40.33618,40.77501 -43.76964,61.02924 10.47597,-20.90977 34.24939,-38.7752 z m 83.83724,71.2067 c -1.11859,-0.75193 -0.69553,-7.66937 2.31731,-37.89024 1.61774,-16.22713 3.88376,-28.01703 5.0355,-26.19905 1.63801,2.58558 -1.49902,45.7357 -4.28035,58.87678 -1.0738,5.07332 -1.69972,6.13525 -3.07246,5.21251 z m -21.66427,-3.11925 c -0.0281,-1.51342 0.29451,-5.791 0.71693,-9.50575 2.50006,-21.98541 7.1995,-38.44768 14.13784,-49.525 2.01787,-3.22167 2.37801,-3.58205 2.52665,-2.52843 0.23361,1.65535 -0.65754,4.56053 -2.6923,8.77728 -1.71587,3.55586 -6.15559,19.86681 -11.16655,41.02479 -1.36853,5.77849 -2.70948,11.40689 -2.97987,12.50756 l -0.49161,2.00121 -0.0511,-2.75166 z M 679.70144,143.3435 c 13.2336,-14.30003 29.56195,-24.36806 52.35867,-32.28426 16.71305,-5.80363 32.32459,-8.0211 61.98327,-8.80416 15.18648,-0.40096 23.2065,0.23356 26.95391,2.1325 1.58833,0.8049 4.02492,1.4783 6.34995,1.755 14.04896,1.67191 30.62853,12.21691 42.95154,27.31812 2.62265,3.21396 6.19728,8.99205 6.8288,11.03821 0.35261,1.1424 0.32271,1.15156 -2.65616,0.81455 l -3.01276,-0.34086 -0.74029,1.77177 c -0.40714,0.97447 -1.15335,1.98949 -1.65814,2.2556 -0.50487,0.26611 -3.3944,0.75046 -6.42126,1.07632 -7.31289,0.78731 -7.25435,0.76514 -7.25435,2.74729 0,1.31212 -0.37146,1.94126 -1.78061,3.01607 -1.37931,1.05209 -1.74572,1.65733 -1.62596,2.68597 l 0.15457,1.32786 -3.31541,-0.17249 c -3.28632,-0.17098 -3.32729,-0.15694 -4.6676,1.60032 -0.77936,1.0218 -2.1301,2.0255 -3.18851,2.3693 -1.00998,0.32806 -3.18714,1.66727 -4.83816,2.976 -4.64447,3.68167 -13.84959,13.39283 -15.9741,16.8523 -2.09538,3.41212 -3.55823,4.31548 -4.62522,2.85628 -0.36493,-0.49906 -0.66351,-1.41111 -0.66351,-2.02678 0,-1.09396 -1.17277,-2.69178 -1.9757,-2.69178 -0.68316,0 -1.39409,1.17239 -1.76655,2.91313 -0.23714,1.10856 -0.88144,1.98296 -1.93388,2.62471 -2.10336,1.28256 -3.14283,1.21543 -4.11326,-0.26564 -0.66963,-1.02196 -0.70854,-1.53042 -0.22837,-2.98545 0.73365,-2.22285 2.68348,-3.85885 7.47008,-6.26767 3.76847,-1.89646 7.07936,-4.57073 4.79904,-3.87628 -6.81942,2.07682 -6.70259,2.06147 -10.97932,1.44312 -9.31864,-1.34734 -18.35518,-5.6969 -19.66966,-9.46761 -0.56591,-1.62341 0.027,-3.6301 1.07302,-3.6301 0.69119,0 3.01953,2.62391 4.21756,4.75287 0.89231,1.58584 0.68397,0.2394 -0.40739,-2.63195 -2.20813,-5.80967 -0.90283,-9.83038 5.11458,-15.75416 2.72747,-2.68504 3.65419,-3.87734 3.01365,-3.87734 -1.90138,0 -17.04681,9.71831 -18.98892,12.18451 -1.6814,2.13521 -3.45552,2.9259 -6.51309,2.90274 -3.49952,-0.0265 -7.09757,-1.03675 -7.83045,-2.19861 -0.65877,-1.04438 -0.66485,-1.03935 7.72624,-6.3879 3.45736,-2.20376 7.80852,-5.29965 9.66933,-6.87976 7.15204,-6.07336 9.33701,-7.12552 14.79711,-7.12552 5.40893,0 12.35427,2.32274 14.69667,4.91502 0.50733,0.56141 3.09639,1.96861 5.75348,3.12711 6.20679,2.70617 13.99808,6.6584 15.53816,7.88195 0.8393,0.66682 1.11726,1.27559 0.92249,2.0204 -0.15336,0.58631 -0.0814,1.18801 0.15984,1.33711 0.59833,0.36976 3.00152,-0.92442 4.2215,-2.27332 1.23283,-1.3632 4.36028,-2.9998 5.73237,-2.9998 0.80394,0 1.0205,-0.32361 1.0205,-1.5248 0,-1.91539 1.77863,-3.6635 5.50336,-5.40886 2.15278,-1.0088 3.66486,-1.31691 6.94784,-1.41574 2.30787,-0.0695 4.31077,-0.24093 4.45083,-0.38101 1.02654,-1.0265 -12.3457,-15.15721 -15.6153,-16.50101 -1.08088,-0.44424 -3.1071,-1.88648 -4.50272,-3.20496 -4.44479,-4.19915 -10.17615,-6.95299 -20.01243,-9.61572 -6.98393,-1.89057 -16.30668,-2.90111 -31.30452,-3.39324 -10.84147,-0.35575 -13.92164,-0.26907 -23.76432,0.66878 -2.89561,0.2759 -4.34797,0.11001 -8.38632,-0.95788 -2.68631,-0.71036 -5.23229,-1.29156 -5.65773,-1.29156 -0.42545,0 -1.6046,0.66193 -2.62034,1.47097 -2.33805,1.86225 -10.64281,5.96499 -15.82665,7.81874 -2.1856,0.78157 -4.9998,2.14764 -6.25378,3.03571 -7.16652,5.07532 -13.86305,8.15392 -17.78934,8.17829 -2.42928,0.0151 -4.6628,1.30263 -6.54863,3.77508 -1.31182,1.71988 -1.35015,1.89513 -0.54363,2.48488 0.47726,0.34898 2.9327,1.0356 5.45655,1.52581 l 4.58881,0.89131 -2.7273,2.42997 c -1.50003,1.33648 -4.27723,3.21341 -6.17158,4.17094 -2.94588,1.48906 -3.94605,1.74097 -6.91216,1.74097 l -3.46791,0 4.22404,-3.48123 c 6.48482,-5.34444 6.18749,-6.69061 -0.6559,-2.96957 -13.15496,7.15289 -29.87781,23.61104 -38.06244,37.45995 -1.90561,3.22442 -2.2119,4.12999 -2.2119,6.53973 0,3.27654 -0.73625,4.5746 -6.17847,10.89302 -4.72225,5.48253 -7.48841,9.46638 -10.12517,14.58235 -1.20155,2.3313 -3.10126,5.2708 -4.22159,6.53222 -2.15639,2.42799 -2.97505,4.09631 -3.46345,7.05808 -0.18314,1.11057 -1.07274,2.69721 -2.28351,4.07271 -1.09092,1.23935 -2.40496,3.23484 -2.9201,4.43443 -99.33651,94.46595 21.0773,-54.7502 50.37806,-87.37305 z m 134.60433,21.63071 c 0.65819,-0.33991 1.51329,-1.09947 1.90017,-1.68791 0.62975,-0.95792 0.58302,-1.2057 -0.44634,-2.3675 -2.5016,-2.82357 -8.65416,-1.80253 -8.65416,1.43619 0,1.21517 0.33334,1.66744 1.75103,2.37566 2.05281,1.02548 3.78519,1.10291 5.4493,0.24356 z M 714.16671,288.72834 c -0.41627,-1.59183 1.21213,-4.47698 9.9163,-17.56948 8.96119,-13.47909 12.49187,-17.8891 13.89199,-17.35182 1.57573,0.60466 0.83978,2.32042 -3.09508,7.21585 -4.77638,5.94235 -9.46438,13.09938 -13.24659,20.22318 -3.88067,7.30925 -6.75788,10.19249 -7.46662,7.48227 z m -17.37791,-5.38693 c 0,-2.89538 5.9154,-8.86629 8.48679,-8.5664 3.81211,0.44458 -2.05438,8.49068 -6.74571,9.25198 -1.48541,0.24105 -1.74108,0.14038 -1.74108,-0.68558 z m -5.67009,-2.99845 c -0.74251,-0.7425 -0.24369,-3.48482 0.86219,-4.74012 1.69122,-1.91969 5.31001,-4.43209 6.38387,-4.43209 2.29449,0 0.1855,4.42109 -3.75889,7.87976 -1.81403,1.59066 -2.81717,1.96245 -3.48717,1.29245 z m -30.5332,-7.56026 c -0.41276,-0.66786 2.63259,-3.15249 12.04567,-9.82778 4.18636,-2.96875 11.97868,-9.06894 17.31626,-13.55595 9.92878,-8.34659 14.8539,-12.0156 17.71395,-13.19617 1.56649,-0.64662 3.13925,-0.49284 3.13264,0.30631 -0.0157,1.89842 -15.77849,15.87128 -27.7409,24.59078 -4.39021,3.20006 -8.81201,6.66431 -9.82623,7.69834 -1.01421,1.03403 -2.86081,2.32982 -4.10354,2.87953 -2.65465,1.17429 -8.06246,1.87414 -8.53785,1.10494 z m 45.70904,-3.28666 c 0,-2.78203 15.00784,-17.67781 23.7091,-23.53207 1.92701,-1.29651 3.80752,-1.72323 3.80752,-0.86398 0,1.12228 -4.92826,6.86037 -10.81108,12.58758 -12.19843,11.87577 -16.70554,15.06166 -16.70554,11.80847 z m -53.19882,-0.15973 c -0.5885,-0.58851 -0.35712,-2.41198 0.4528,-3.56829 1.07332,-1.53238 4.79166,-4.18302 12.24816,-8.73118 3.45423,-2.10693 6.7187,-4.32516 7.25438,-4.9294 l 0.97397,-1.09861 -1.5009,0.35682 c -2.27541,0.54094 -10.95767,4.90004 -15.92759,7.99677 -4.94377,3.08043 -8.34701,4.00797 -9.70886,2.64612 -1.81487,-1.81487 1.46159,-4.22952 13.37904,-9.85998 8.23093,-3.88873 9.88861,-4.83867 10.52778,-6.03298 0.27274,-0.50961 1.36114,-1.15956 2.41867,-1.44432 1.93883,-0.52207 4.24509,-2.29736 9.89908,-7.62001 2.74018,-2.5796 4.17079,-3.47822 4.17079,-2.61983 0,0.63406 -1.3001,2.61464 -4.82797,7.35498 -3.89406,5.23236 -5.43526,7.78093 -4.98042,8.23576 0.5455,0.54551 2.81898,-1.43701 5.49721,-4.79368 3.79011,-4.7502 7.36714,-7.43893 12.67114,-9.52448 1.43355,-0.56367 2.72873,-0.82704 2.87816,-0.58525 0.628,1.01612 -6.0108,7.80662 -15.49068,15.84466 -7.74409,6.56625 -18.33225,13.64258 -25.89862,17.30871 -3.05136,1.47847 -3.50282,1.5975 -4.03614,1.06419 z m 46.69488,-3.30741 c 0,-1.57956 5.77602,-8.23677 11.50696,-13.26246 4.64017,-4.06916 5.80362,-4.72725 7.12931,-4.03257 1.85364,0.97132 0.53117,2.67639 -4.68111,6.0354 -2.03703,1.31274 -3.22809,2.55736 -4.35044,4.54604 -1.97324,3.4964 -6.59984,7.35272 -8.82138,7.35272 -0.43083,0 -0.78334,-0.28761 -0.78334,-0.63913 z m -69.79217,-11.26204 c -15.82152,-4.2788 -6.37399,-7.39226 4.25257,-1.58419 0,0.26262 0.0112,0.64635 0.0248,0.85272 0.0332,0.50315 -2.41697,0.92216 -4.27736,0.73147 l -2e-5,0 z m 11.46626,-0.14364 c -0.84788,-0.2462 -1.97161,-0.92278 -2.49717,-1.50351 -0.94238,-1.04133 -0.94092,-1.06776 0.1065,-1.9159 0.58413,-0.473 2.38326,-1.17095 3.99807,-1.55099 l 2.93601,-0.69099 -3.73117,-0.39927 c -2.07838,-0.2224 -4.04909,-0.71719 -4.44888,-1.11697 -0.62342,-0.62342 -0.49472,-0.85345 0.9795,-1.75078 2.17782,-1.3256 14.23812,-5.15977 20.6996,-6.58075 5.44136,-1.19664 8.17105,-2.24177 10.56815,-4.0463 0.85448,-0.64324 2.52049,-1.90123 3.70226,-2.79552 1.96908,-1.49008 5.00035,-2.2369 5.00035,-1.23195 0,0.78012 -8.38235,8.23618 -11.59499,10.3137 -0.73633,0.47617 -3.39551,1.19682 -5.90928,1.60146 -6.00131,0.96603 -11.51327,2.97014 -11.51327,4.18615 0,0.19974 0.90054,0.7169 2.00121,1.14925 1.10067,0.43236 2.00121,1.01975 2.00121,1.30532 0,0.68509 -2.90443,2.97893 -5.59213,4.41649 -2.23917,1.19767 -4.10035,1.36712 -6.70597,0.61056 z m -10.71905,-4.93771 c -3.43374,-1.03057 -5.48416,-2.84169 -4.68361,-4.13701 0.42552,-0.68851 4.72063,-0.16012 6.60053,0.81202 1.53372,0.79312 2.40009,2.2076 1.72991,2.82435 -0.7113,0.65461 -2.37351,0.8828 -3.64683,0.50064 z m 2.00445,-7.44761 c 0,-0.47318 11.55801,-4.20281 11.91575,-3.84507 0.45605,0.45604 -2.20009,2.25167 -4.80521,3.24849 -2.63862,1.00962 -7.11054,1.38482 -7.11054,0.59658 z m 0.079,-5.743 c -1.02542,-1.23555 0.17048,-1.5651 6.1748,-1.70155 l 5.50333,-0.12508 -2.25137,1.08725 c -2.89712,1.39909 -8.51364,1.83963 -9.42676,0.73938 z m 25.77549,-1.20207 c -0.1604,-0.25954 0.73267,-1.32811 1.98461,-2.3746 2.65526,-2.21953 2.30468,-2.75356 -1.45598,-2.21779 -1.44031,0.20519 -3.7157,0.38951 -5.05643,0.4096 -2.16562,0.0324 -2.36457,-0.0516 -1.78249,-0.75296 0.85004,-1.02424 4.76611,-2.99134 6.8537,-3.44272 1.20039,-0.25955 2.23088,-0.0636 3.89041,0.73977 3.60965,1.7474 4.22691,1.4476 13.71077,-6.65929 3.17956,-2.71792 6.62047,-5.42926 7.64647,-6.02519 1.33806,-0.77719 2.04527,-1.64512 2.50151,-3.07 0.64164,-2.00387 1.32133,-2.53802 4.88864,-3.84185 0.96308,-0.352 3.2426,-2.03706 5.0656,-3.74459 4.99084,-4.67471 11.19422,-7.41389 11.19422,-4.94295 0,0.64682 -0.87292,1.54796 -2.50151,2.5824 -3.99943,2.54034 -5.23521,3.66764 -5.98327,5.45799 -0.38611,0.92407 -1.68173,2.65986 -2.87916,3.85729 -3.47539,3.47539 -26.60494,20.59209 -30.25184,22.38745 -3.3876,1.66771 -7.30051,2.48649 -7.82525,1.63744 z m -23.1257,-3.683 c -0.64271,-1.03993 2.0595,-3.04777 8.0148,-5.95527 10.81374,-5.27951 18.91224,-7.9204 21.81291,-7.11312 l 1.71423,0.47709 -2.75166,1.1641 c -1.51342,0.64027 -6.56113,3.04586 -11.21714,5.34577 -7.85129,3.87828 -14.67615,6.61877 -16.48325,6.61877 -0.41679,0 -0.90724,-0.24181 -1.08989,-0.53734 z m 5.1093,-7.80104 c -1.2647,-1.26469 0.90104,-2.77171 3.31898,-2.30949 1.83635,0.35104 1.69652,1.04861 -0.38448,1.9181 -1.93693,0.80931 -2.44837,0.87752 -2.9345,0.39139 z m 33.68702,-9.6964 c 0,-0.2883 0.59572,-1.07628 1.32381,-1.75106 l 1.32382,-1.22686 -3.7958,0 c -2.08769,0 -3.93998,-0.2333 -4.1162,-0.51844 -0.52726,-0.8531 3.37084,-4.32889 5.52581,-4.92716 2.83478,-0.787 3.93139,-0.69565 5.38616,0.44867 2.53736,1.9959 2.15507,6.30084 -0.69019,7.77219 -1.62365,0.83961 -4.95741,0.97591 -4.95741,0.20266 z m 9.29766,-7.91289 c -0.56657,-0.91672 0.53873,-2.34876 3.82578,-4.95675 7.85234,-6.23016 23.18277,-15.74569 33.65483,-20.88941 13.62177,-6.69081 11.08774,-4.25809 -10.97439,10.53565 -8.82306,5.91629 -17.32374,11.79236 -18.8904,13.05794 -2.14821,1.73538 -3.39283,2.36241 -5.06289,2.55065 -1.32941,0.14985 -2.34972,0.0307 -2.55293,-0.29808 z M 658.435,204.35052 c -0.18173,-0.47359 0.26246,-1.36682 1.13006,-2.27238 1.41358,-1.47547 20.69638,-14.82283 30.05096,-20.80099 9.05178,-5.78464 26.8637,-14.03859 39.13199,-18.13356 12.0238,-4.01335 11.42756,-3.14543 -1.6909,2.46134 -11.82179,5.05259 -11.32623,4.76999 -29.74139,16.9601 -14.75102,9.76459 -23.14183,14.54578 -27.29308,15.55192 -1.24935,0.3028 -3.50491,1.71061 -6.00363,3.74714 -4.15886,3.38962 -5.08002,3.79979 -5.58401,2.48643 z m -8.35021,-1.60107 c -0.44592,-0.72152 1.07458,-3.48694 2.94635,-5.35871 6.54289,-6.5429 26.49354,-18.39565 51.27406,-30.46211 16.26769,-7.92127 33.75199,-14.75303 34.87723,-13.62779 0.15483,0.15483 -1.25141,0.99885 -3.12498,1.8756 -2.95039,1.38065 -3.26184,1.6476 -2.32608,1.99376 1.75087,0.64768 1.24757,0.98893 -1.29601,0.87872 -1.96513,-0.0851 -3.71859,0.48204 -10.13112,3.2771 -9.70308,4.22934 -26.02751,12.22528 -33.27011,16.29618 -3.02682,1.70131 -8.99293,5.62165 -13.25801,8.71186 -13.13815,9.51908 -23.99595,16.79557 -25.06193,16.79557 -0.21694,0 -0.50017,-0.17108 -0.6294,-0.38018 z m 27.99124,-2.42536 c -0.20278,-0.52845 0.33658,-1.43818 1.57246,-2.65226 3.23126,-3.17425 29.29052,-18.61227 43.10139,-25.53414 7.08338,-3.55011 8.7626,-4.26181 8.30376,-3.51938 -0.46243,0.74822 -5.76679,4.24325 -22.50772,14.83027 -19.38305,12.25792 -28.39096,17.67984 -29.37304,17.67984 -0.43351,0 -0.92709,-0.36195 -1.09685,-0.80433 z m 154.16962,-4.20792 c -1.41246,-0.87243 -1.11388,-3.78428 0.67361,-6.56985 2.83269,-4.41441 9.79729,-9.94683 15.44917,-12.27221 3.06746,-1.26206 4.29345,-1.42324 4.7843,-0.62898 0.52715,0.85295 -1.06827,2.25887 -8.80526,7.75951 -9.87427,7.02013 -11.64211,9.08391 -4.83973,5.6501 5.12344,-2.58629 9.21881,-3.93419 12.01094,-3.95312 1.43836,-0.01 3.17804,-0.33947 3.86596,-0.73272 1.78862,-1.02249 4.16856,-0.91265 6.77538,0.31271 3.57741,1.68158 4.04756,3.73331 1.19368,5.20912 -1.82983,0.94623 -3.29486,0.92293 -7.01592,-0.11161 -3.76726,-1.04741 -5.45574,-0.67358 -13.01138,2.88072 -5.46944,2.57289 -9.45995,3.45749 -11.08075,2.45633 z m -37.41509,-11.96448 c -0.97265,-0.52119 -3.37176,-2.43204 -5.33135,-4.24635 -3.74136,-3.46388 -6.89672,-5.24451 -9.41009,-5.31019 -3.06615,-0.0801 -4.75899,-1.10443 -6.16633,-3.73114 -0.95225,-1.7773 -1.88844,-2.75671 -3.24609,-3.39594 -1.45812,-0.68652 -2.19414,-1.51307 -3.12201,-3.50599 -0.66775,-1.43423 -1.21629,-3.00746 -1.21898,-3.49607 -0.005,-0.84055 0.0826,-0.84329 1.6211,-0.0509 2.46134,1.26771 4.72352,3.04035 9.16471,7.18147 2.93468,2.73641 5.93931,4.84166 11.00664,7.71205 9.20891,5.21639 11.82016,7.12495 11.62447,8.49649 -0.20432,1.43208 -2.58354,1.59962 -4.92207,0.3466 z m -129.54297,-3.26402 c -0.47559,-0.57305 -0.46194,-0.93309 0.0638,-1.68335 1.16002,-1.65538 6.52731,-5.88418 11.16041,-8.79311 4.5907,-2.88231 7.05456,-3.51679 8.21711,-2.116 0.86275,1.03956 0.22131,2.04778 -1.89759,2.98264 -1.05066,0.46355 -4.24988,2.56665 -7.10935,4.67354 -8.11024,5.97571 -9.1597,6.47219 -10.43439,4.93628 z m 204.60578,-9.15487 c -4.78486,-0.51868 -5.6491,-0.78109 -7.27551,-2.20907 -2.04212,-1.79302 -2.27581,-3.94484 -0.77851,-7.16874 1.76953,-3.81006 4.29409,-5.54424 6.95859,-4.78006 5.41244,1.55226 6.87368,3.56757 6.48857,8.94903 -0.14051,1.96411 -0.51816,3.8876 -0.83918,4.27445 -0.62935,0.7583 -2.54756,1.15188 -4.55396,0.93439 z m -200.1209,-4.1294 c 0,-1.82915 14.68753,-9.42368 30.27342,-15.65357 10.59055,-4.23319 16.45763,-5.91439 24.84091,-7.11812 7.26947,-1.0438 20.43133,-1.59088 20.43133,-0.84923 0,0.8522 -2.76604,1.5053 -10.00605,2.36255 -24.22237,2.86807 -21.87406,2.10181 -62.91302,20.52872 -1.44462,0.64865 -2.62659,0.97699 -2.62659,0.72965 z m 19.51179,-1.2569 c 0,-0.14358 1.38573,-1.1567 3.07938,-2.25136 2.22979,-1.44118 3.61011,-1.9903 5.00303,-1.9903 3.60366,0 2.2068,1.07767 -4.29269,3.31179 -3.80455,1.30776 -3.78972,1.30412 -3.78972,0.92987 z m 22.43534,-13.2096 c 2.3369,-2.04124 13.81609,-4.78663 15.41256,-3.6861 0.57043,0.39322 0.84882,1.34033 0.73466,2.4994 -0.10387,1.05461 -3.61808,1.70741 -10.56562,1.96269 l -6.75409,0.24816 1.17249,-1.02415 z m 14.90779,-16.96915 c -0.38013,-2.37724 -1.30086,-2.73493 -5.18948,-2.01608 -1.50356,0.27794 -2.84538,0.39373 -2.98181,0.2573 -0.32341,-0.32341 3.66359,-4.16206 8.16653,-7.86266 6.76909,-5.56298 8.1016,-5.30891 5.99307,1.1427 -1.45859,4.46295 -4.20849,9.98002 -5.11635,10.26484 -0.31401,0.0985 -0.69557,-0.68306 -0.87196,-1.7861 z"
     id="path4026"
     sodipodi:nodetypes="csscccsssccssssssssssccsssssccssssssssssssccccssssssssssssssssssscccssssssssssssssssssssssssssssssssssssccssccscccsssccsssssccccsssssscccsssscccsssssssssssssssssssssssssssssssssssssssssssssssssscccscccsssssssscccssssccssssccssccsssccsssssssccsssccsscccssssssssssssssccssssscccscccsscccssssssssssssccsssccsscccccccssssssssssssssssccscccssccsscccccssssccsssssccsssssssccssssssssssccsssssccsssssssssssccssssssssssccsssssccsssssccsssssccsssccssccccsssssc"
     inkscape:export-filename="/Users/filipe/Desktop/path3995.png"
     inkscape:export-xdpi="300"
     inkscape:export-ydpi="300"
     inkscape:connector-curvature="0" />
</svg>
